<svg width="842" height="230" viewBox="0 0 842 230" fill="none" xmlns="http://www.w3.org/2000/svg">
<rect width="26" height="26" rx="2" fill="#242424"/>
<rect x="68" width="26" height="26" rx="2" fill="#242424"/>
<rect x="102" width="26" height="26" rx="2" fill="#242424"/>
<rect x="136" width="26" height="26" rx="2" fill="#242424"/>
<rect x="170" width="26" height="26" rx="2" fill="#242424"/>
<rect x="204" width="26" height="26" rx="2" fill="#242424"/>
<rect x="238" width="26" height="26" rx="2" fill="#242424"/>
<rect x="442" width="26" height="26" rx="2" fill="#242424"/>
<rect x="782" y="34" width="26" height="26" rx="2" fill="#242424"/>
<rect x="680" width="26" height="26" rx="2" fill="#242424"/>
<rect x="578" width="26" height="26" rx="2" fill="#242424"/>
<rect x="646" width="26" height="26" rx="2" fill="#242424"/>
<rect x="476" width="26" height="26" rx="2" fill="#242424"/>
<rect x="408" width="26" height="26" rx="2" fill="#242424"/>
<rect x="306" width="26" height="26" rx="2" fill="#242424"/>
<rect x="340" width="26" height="26" rx="2" fill="#242424"/>
<rect x="272" width="26" height="26" rx="2" fill="#39D353"/>
<rect x="238" y="34" width="26" height="26" rx="2" fill="#242424"/>
<rect x="442" y="34" width="26" height="26" rx="2" fill="#242424"/>
<rect x="782" y="68" width="26" height="26" rx="2" fill="#242424"/>
<rect x="680" y="34" width="26" height="26" rx="2" fill="#242424"/>
<rect x="612" y="34" width="26" height="26" rx="2" fill="#242424"/>
<rect x="646" y="34" width="26" height="26" rx="2" fill="#242424"/>
<rect x="578" y="34" width="26" height="26" rx="2" fill="#242424"/>
<rect x="544" y="34" width="26" height="26" rx="2" fill="#242424"/>
<rect x="408" y="34" width="26" height="26" rx="2" fill="#242424"/>
<rect x="306" y="34" width="26" height="26" rx="2" fill="#242424"/>
<rect x="374" y="34" width="26" height="26" rx="2" fill="#242424"/>
<rect x="272" y="34" width="26" height="26" rx="2" fill="#006D32"/>
<rect x="476" y="68" width="26" height="26" rx="2" fill="#006D32"/>
<rect x="646" y="68" width="26" height="26" rx="2" fill="#006D32"/>
<rect x="714" y="102" width="26" height="26" rx="2" fill="#006D32"/>
<rect x="748" y="68" width="26" height="26" rx="2" fill="#006D32"/>
<rect x="612" width="26" height="26" rx="2" fill="#006D32"/>
<rect x="714" width="26" height="26" rx="2" fill="#006D32"/>
<rect x="816" width="26" height="26" rx="2" fill="#006D32"/>
<rect x="714" y="34" width="26" height="26" rx="2" fill="#006D32"/>
<rect x="102" y="34" width="26" height="26" rx="2" fill="#242424"/>
<rect x="136" y="34" width="26" height="26" rx="2" fill="#242424"/>
<rect x="170" y="34" width="26" height="26" rx="2" fill="#242424"/>
<rect x="204" y="34" width="26" height="26" rx="2" fill="#0E4429"/>
<rect x="102" y="68" width="26" height="26" rx="2" fill="#242424"/>
<rect x="136" y="68" width="26" height="26" rx="2" fill="#242424"/>
<rect x="170" y="68" width="26" height="26" rx="2" fill="#242424"/>
<rect x="204" y="68" width="26" height="26" rx="2" fill="#242424"/>
<rect x="238" y="68" width="26" height="26" rx="2" fill="#242424"/>
<rect x="442" y="68" width="26" height="26" rx="2" fill="#242424"/>
<rect x="782" y="102" width="26" height="26" rx="2" fill="#242424"/>
<rect x="680" y="68" width="26" height="26" rx="2" fill="#242424"/>
<rect x="612" y="68" width="26" height="26" rx="2" fill="#242424"/>
<rect x="578" y="68" width="26" height="26" rx="2" fill="#242424"/>
<rect x="544" y="68" width="26" height="26" rx="2" fill="#242424"/>
<rect x="816" y="68" width="26" height="26" rx="2" fill="#242424"/>
<rect x="408" y="68" width="26" height="26" rx="2" fill="#242424"/>
<rect x="306" y="68" width="26" height="26" rx="2" fill="#242424"/>
<rect x="510" y="102" width="26" height="26" rx="2" fill="#242424"/>
<rect x="510" y="170" width="26" height="26" rx="2" fill="#242424"/>
<rect x="340" y="68" width="26" height="26" rx="2" fill="#242424"/>
<rect x="340" y="136" width="26" height="26" rx="2" fill="#242424"/>
<rect x="340" y="102" width="26" height="26" rx="2" fill="#006D32"/>
<rect x="374" y="102" width="26" height="26" rx="2" fill="#006D32"/>
<rect x="374" y="68" width="26" height="26" rx="2" fill="#006D32"/>
<rect x="272" y="68" width="26" height="26" rx="2" fill="#0E4429"/>
<rect x="340" y="34" width="26" height="26" rx="2" fill="#0E4429"/>
<rect x="476" y="34" width="26" height="26" rx="2" fill="#0E4429"/>
<rect x="476" y="102" width="26" height="26" rx="2" fill="#0E4429"/>
<rect x="510" y="34" width="26" height="26" rx="2" fill="#0E4429"/>
<rect x="748" y="34" width="26" height="26" rx="2" fill="#0E4429"/>
<rect x="816" y="34" width="26" height="26" rx="2" fill="#0E4429"/>
<rect x="510" y="68" width="26" height="26" rx="2" fill="#0E4429"/>
<rect x="510" y="136" width="26" height="26" rx="2" fill="#0E4429"/>
<rect x="476" y="136" width="26" height="26" rx="2" fill="#0E4429"/>
<rect x="510" width="26" height="26" rx="2" fill="#0E4429"/>
<rect x="748" width="26" height="26" rx="2" fill="#0E4429"/>
<rect x="544" width="26" height="26" rx="2" fill="#0E4429"/>
<rect x="782" width="26" height="26" rx="2" fill="#0E4429"/>
<rect x="476" y="204" width="26" height="26" rx="2" fill="#0E4429"/>
<rect x="374" width="26" height="26" rx="2" fill="#0E4429"/>
<rect x="306" y="102" width="26" height="26" rx="2" fill="#0E4429"/>
<rect x="578" y="102" width="26" height="26" rx="2" fill="#0E4429"/>
<rect x="714" y="68" width="26" height="26" rx="2" fill="#0E4429"/>
<rect x="306" y="170" width="26" height="26" rx="2" fill="#0E4429"/>
<rect x="578" y="170" width="26" height="26" rx="2" fill="#0E4429"/>
<rect x="408" y="170" width="26" height="26" rx="2" fill="#0E4429"/>
<rect x="102" y="102" width="26" height="26" rx="2" fill="#242424"/>
<rect x="136" y="102" width="26" height="26" rx="2" fill="#242424"/>
<rect x="170" y="102" width="26" height="26" rx="2" fill="#0E4429"/>
<rect x="204" y="102" width="26" height="26" rx="2" fill="#242424"/>
<rect x="238" y="102" width="26" height="26" rx="2" fill="#242424"/>
<rect x="442" y="102" width="26" height="26" rx="2" fill="#242424"/>
<rect x="782" y="136" width="26" height="26" rx="2" fill="#242424"/>
<rect x="782" y="204" width="26" height="26" rx="2" fill="#242424"/>
<rect x="680" y="102" width="26" height="26" rx="2" fill="#242424"/>
<rect x="748" y="102" width="26" height="26" rx="2" fill="#242424"/>
<rect x="646" y="102" width="26" height="26" rx="2" fill="#242424"/>
<rect x="612" y="102" width="26" height="26" rx="2" fill="#242424"/>
<rect x="544" y="102" width="26" height="26" rx="2" fill="#242424"/>
<rect x="816" y="102" width="26" height="26" rx="2" fill="#242424"/>
<rect x="408" y="102" width="26" height="26" rx="2" fill="#242424"/>
<rect x="374" y="136" width="26" height="26" rx="2" fill="#242424"/>
<rect x="272" y="102" width="26" height="26" rx="2" fill="#0E4429"/>
<rect x="306" y="136" width="26" height="26" rx="2" fill="#0E4429"/>
<rect x="578" y="136" width="26" height="26" rx="2" fill="#0E4429"/>
<rect x="612" y="136" width="26" height="26" rx="2" fill="#0E4429"/>
<rect x="680" y="204" width="26" height="26" rx="2" fill="#0E4429"/>
<rect x="680" y="136" width="26" height="26" rx="2" fill="#0E4429"/>
<rect x="714" y="136" width="26" height="26" rx="2" fill="#0E4429"/>
<rect x="748" y="136" width="26" height="26" rx="2" fill="#0E4429"/>
<rect x="714" y="204" width="26" height="26" rx="2" fill="#0E4429"/>
<rect x="748" y="204" width="26" height="26" rx="2" fill="#0E4429"/>
<rect x="782" y="170" width="26" height="26" rx="2" fill="#0E4429"/>
<rect x="306" y="204" width="26" height="26" rx="2" fill="#0E4429"/>
<rect x="578" y="204" width="26" height="26" rx="2" fill="#0E4429"/>
<rect x="340" y="204" width="26" height="26" rx="2" fill="#0E4429"/>
<rect x="102" y="136" width="26" height="26" rx="2" fill="#0E4429"/>
<rect x="136" y="136" width="26" height="26" rx="2" fill="#0E4429"/>
<rect x="170" y="136" width="26" height="26" rx="2" fill="#006D32"/>
<rect x="204" y="136" width="26" height="26" rx="2" fill="#242424"/>
<rect x="238" y="136" width="26" height="26" rx="2" fill="#242424"/>
<rect x="442" y="136" width="26" height="26" rx="2" fill="#242424"/>
<rect x="646" y="136" width="26" height="26" rx="2" fill="#242424"/>
<rect x="544" y="136" width="26" height="26" rx="2" fill="#242424"/>
<rect x="816" y="136" width="26" height="26" rx="2" fill="#242424"/>
<rect x="408" y="136" width="26" height="26" rx="2" fill="#242424"/>
<rect x="374" y="170" width="26" height="26" rx="2" fill="#242424"/>
<rect x="408" y="204" width="26" height="26" rx="2" fill="#242424"/>
<rect x="442" y="204" width="26" height="26" rx="2" fill="#242424"/>
<rect x="646" y="204" width="26" height="26" rx="2" fill="#242424"/>
<rect x="612" y="204" width="26" height="26" rx="2" fill="#242424"/>
<rect x="544" y="204" width="26" height="26" rx="2" fill="#242424"/>
<rect x="816" y="204" width="26" height="26" rx="2" fill="#242424"/>
<rect x="272" y="136" width="26" height="26" rx="2" fill="#242424"/>
<rect x="102" y="170" width="26" height="26" rx="2" fill="#242424"/>
<rect x="136" y="170" width="26" height="26" rx="2" fill="#242424"/>
<rect x="170" y="170" width="26" height="26" rx="2" fill="#242424"/>
<rect x="204" y="170" width="26" height="26" rx="2" fill="#242424"/>
<rect x="238" y="170" width="26" height="26" rx="2" fill="#242424"/>
<rect x="442" y="170" width="26" height="26" rx="2" fill="#242424"/>
<rect x="680" y="170" width="26" height="26" rx="2" fill="#242424"/>
<rect x="714" y="170" width="26" height="26" rx="2" fill="#242424"/>
<rect x="748" y="170" width="26" height="26" rx="2" fill="#242424"/>
<rect x="646" y="170" width="26" height="26" rx="2" fill="#242424"/>
<rect x="612" y="170" width="26" height="26" rx="2" fill="#242424"/>
<rect x="544" y="170" width="26" height="26" rx="2" fill="#242424"/>
<rect x="816" y="170" width="26" height="26" rx="2" fill="#242424"/>
<rect x="476" y="170" width="26" height="26" rx="2" fill="#242424"/>
<rect x="374" y="204" width="26" height="26" rx="2" fill="#242424"/>
<rect x="272" y="170" width="26" height="26" rx="2" fill="#006D32"/>
<rect x="340" y="170" width="26" height="26" rx="2" fill="#006D32"/>
<rect x="510" y="204" width="26" height="26" rx="2" fill="#006D32"/>
<rect x="102" y="204" width="26" height="26" rx="2" fill="#242424"/>
<rect x="136" y="204" width="26" height="26" rx="2" fill="#242424"/>
<rect x="170" y="204" width="26" height="26" rx="2" fill="#242424"/>
<rect x="204" y="204" width="26" height="26" rx="2" fill="#242424"/>
<rect x="238" y="204" width="26" height="26" rx="2" fill="#006D32"/>
<rect x="272" y="204" width="26" height="26" rx="2" fill="#0E4429"/>
<rect x="68" y="34" width="26" height="26" rx="2" fill="#242424"/>
<rect x="68" y="68" width="26" height="26" rx="2" fill="#242424"/>
<rect x="68" y="136" width="26" height="26" rx="2" fill="#242424"/>
<rect x="68" y="170" width="26" height="26" rx="2" fill="#242424"/>
<rect x="68" y="204" width="26" height="26" rx="2" fill="#242424"/>
<rect y="34" width="26" height="26" rx="2" fill="#242424"/>
<rect y="102" width="26" height="26" rx="2" fill="#242424"/>
<rect x="34" y="102" width="26" height="26" rx="2" fill="#242424"/>
<rect x="34" y="136" width="26" height="26" rx="2" fill="#242424"/>
<rect x="34" y="204" width="26" height="26" rx="2" fill="#242424"/>
<rect y="136" width="26" height="26" rx="2" fill="#242424"/>
<rect y="170" width="26" height="26" rx="2" fill="#242424"/>
<rect y="204" width="26" height="26" rx="2" fill="#006D32"/>
<rect x="34" y="170" width="26" height="26" rx="2" fill="#006D32"/>
<rect x="34" width="26" height="26" rx="2" fill="#0E4429"/>
<rect x="34" y="34" width="26" height="26" rx="2" fill="#0E4429"/>
<rect x="34" y="68" width="26" height="26" rx="2" fill="#0E4429"/>
<rect x="68" y="102" width="26" height="26" rx="2" fill="#0E4429"/>
<rect y="68" width="26" height="26" rx="2" fill="#0E4429"/>
</svg>
