<svg width="25" height="25" viewBox="0 0 25 25" fill="none" xmlns="http://www.w3.org/2000/svg">
<path d="M12.2979 0.5C10.6829 0.5 9.08376 0.818095 7.59171 1.43612C6.09966 2.05415 4.74395 2.96001 3.60198 4.10198C1.29567 6.40829 0 9.53631 0 12.7979C0 18.2336 3.5295 22.8453 8.41178 24.481C9.02668 24.5793 9.22344 24.1981 9.22344 23.8661V21.7877C5.81692 22.5256 5.09134 20.1398 5.09134 20.1398C4.52564 18.7132 3.72627 18.332 3.72627 18.332C2.60716 17.5695 3.81236 17.5941 3.81236 17.5941C5.04215 17.6802 5.69394 18.8608 5.69394 18.8608C6.76386 20.7301 8.57165 20.1767 9.27263 19.8815C9.38332 19.0822 9.70306 18.5411 10.0474 18.2336C7.31726 17.9262 4.45185 16.8685 4.45185 12.183C4.45185 10.818 4.91917 9.72344 5.71853 8.85029C5.59556 8.54284 5.16513 7.26386 5.84151 5.60364C5.84151 5.60364 6.87454 5.27159 9.22344 6.85803C10.195 6.58747 11.2526 6.4522 12.2979 6.4522C13.3432 6.4522 14.4009 6.58747 15.3724 6.85803C17.7213 5.27159 18.7543 5.60364 18.7543 5.60364C19.4307 7.26386 19.0003 8.54284 18.8773 8.85029C19.6767 9.72344 20.144 10.818 20.144 12.183C20.144 16.8808 17.2663 17.9139 14.5238 18.2213C14.9666 18.6025 15.3724 19.3527 15.3724 20.4964V23.8661C15.3724 24.1981 15.5692 24.5916 16.1964 24.481C21.0786 22.833 24.5958 18.2336 24.5958 12.7979C24.5958 11.1829 24.2778 9.58376 23.6597 8.09171C23.0417 6.59966 22.1358 5.24395 20.9939 4.10198C19.8519 2.96001 18.4962 2.05415 17.0041 1.43612C15.5121 0.818095 13.9129 0.5 12.2979 0.5V0.5Z" fill="#1A1A1A"/>
</svg>
